<?xml version="1.0" encoding="UTF-8"?>
<svg width="137px" height="28px" viewBox="0 0 137 28" version="1.1" xmlns="http://www.w3.org/2000/svg" xmlns:xlink="http://www.w3.org/1999/xlink">
    <!-- Generator: Sketch 53.2 (72643) - https://sketchapp.com -->
    <title>Group 7</title>
    <desc>Created with Sketch.</desc>
    <defs>
        <linearGradient x1="50%" y1="0%" x2="50%" y2="100%" id="linearGradient-1">
            <stop stop-color="#1BC4F1" offset="0%"></stop>
            <stop stop-color="#1BC4F1" offset="100%"></stop>
        </linearGradient>
        <linearGradient x1="50%" y1="0%" x2="50%" y2="100%" id="linearGradient-2">
            <stop stop-color="#000000" stop-opacity="0.0606600996" offset="0%"></stop>
            <stop stop-color="#000000" stop-opacity="0.0818897192" offset="100%"></stop>
        </linearGradient>
    </defs>
    <g id="Final" stroke="none" stroke-width="1" fill="none" fill-rule="evenodd">
        <g id="Desktop-Copy" transform="translate(-32.000000, -39.000000)">
            <g id="Group-6" transform="translate(32.000000, 33.000000)">
                <g id="Group-5">
                    <g id="Group-4" transform="translate(0.000000, 6.000000)">
                        <g id="Group-7">
                            <g id="Group-2">
                                <path d="M9.04536144,2.68057357 C9.39923107,1.13716159 10.6119476,0 12.0535713,0 C13.4555977,0 14.6411189,1.07555014 15.0306909,2.55432841 L24.3748715,17.9920148 L24.0800253,18.3413079 C24.0979116,18.4979728 24.1071427,18.6578075 24.1071427,18.8201438 C24.1071427,20.814726 22.7135846,22.4316544 20.9945436,22.4316544 C20.2370498,22.4316544 19.5427556,22.1176929 19.003047,21.5958041 L12.3248543,18.4860787 C8.8907028,20.0027889 6.44418663,21.075803 4.98530581,21.7051212 C4.46421154,22.1612214 3.81562401,22.4316544 3.11259911,22.4316544 C1.39355809,22.4316544 0,20.814726 0,18.8201438 C0,17.6403526 0.487563778,16.5926911 1.24165618,15.9336237 L9.04536144,2.68057357 Z" id="Combined-Shape" fill="url(#linearGradient-1)"></path>
                                <path d="M11.6071429,1.9864492e-12 C12.809789,0.200418224 13.7903816,1.19856459 14.1378338,2.51746007 L23.4820144,17.9551465 L23.1871681,18.3044395 C23.2050544,18.4611045 23.2142855,18.6209391 23.2142855,18.7832754 C23.2142855,20.7778577 21.8207274,22.3947861 20.1016864,22.3947861 C19.3441926,22.3947861 18.6498984,22.0808246 18.1101898,21.5589357 L11.6071429,18.5307676 L11.6071429,-1.64845915e-12 Z" id="Combined-Shape" fill="url(#linearGradient-2)"></path>
                            </g>
                            <path d="M42.2025,7.327 L36.3545,7.327 L36.3545,10.251 L41.7265,10.251 L41.7265,12.495 L36.3545,12.495 L36.3545,17 L33.6685,17 L33.6685,5.1 L42.2195,5.1 L42.2025,7.327 Z M48.4695,17 L45.7835,17 L45.7835,5.1 L48.4695,5.1 L48.4695,17 Z M62.1655,7.327 L55.7905,7.327 L55.7905,9.911 L61.5365,9.911 L61.5365,12.138 L55.7905,12.138 L55.7905,14.773 L62.3525,14.773 L62.3525,17 L53.1045,17 L53.1045,5.1 L62.1655,5.1 L62.1655,7.327 Z M69.1465,14.654 L74.2465,14.654 L74.2465,17 L66.4605,17 L66.4605,5.1 L69.1465,5.1 L69.1465,14.654 Z M77.8445,5.1 L82.8935,5.1 C86.5825,5.1 89.1495,7.531 89.1495,11.05 C89.1495,14.552 86.5485,17 82.7915,17 L77.8445,17 L77.8445,5.1 Z M80.5305,7.361 L80.5305,14.739 L82.9615,14.739 C84.9505,14.739 86.4125,13.243 86.4125,11.067 C86.4125,8.874 84.8825,7.361 82.8425,7.361 L80.5305,7.361 Z M101.3495,7.378 L97.7115,7.378 L97.7115,17 L95.0255,17 L95.0255,7.378 L91.4045,7.378 L91.4045,5.1 L101.3495,5.1 L101.3495,7.378 Z M112.1045,17 L110.2175,13.6 L107.4805,13.6 L107.4805,17 L104.7945,17 L104.7945,5.1 L109.9625,5.1 C113.0735,5.1 114.8415,6.596 114.8415,9.231 C114.8415,11.067 114.0595,12.393 112.6145,13.073 L115.1475,17 L112.1045,17 Z M107.4805,11.356 L109.9625,11.356 C111.4415,11.356 112.2915,10.676 112.2915,9.316 C112.2915,7.99 111.4415,7.327 109.9625,7.327 L107.4805,7.327 L107.4805,11.356 Z M121.7885,17 L119.1025,17 L119.1025,5.1 L121.7885,5.1 L121.7885,17 Z M126.4235,5.1 L131.4725,5.1 C134.4985,5.1 136.2325,6.596 136.2325,9.231 C136.2325,12.002 134.4985,13.6 131.4725,13.6 L129.1095,13.6 L129.1095,17 L126.4235,17 L126.4235,5.1 Z M129.1095,7.327 L129.1095,11.356 L131.3365,11.356 C132.8325,11.356 133.6825,10.676 133.6825,9.316 C133.6825,7.99 132.8325,7.327 131.3365,7.327 L129.1095,7.327 Z" id="FIELDTRIP" fill="#4B4B4B" fill-rule="nonzero"></path>
                            <path d="M124.503529,28 L122.873529,28 L120.123529,21 L121.823529,21 L123.733529,26.28 L125.653529,21 L127.283529,21 L124.503529,28 Z M133.53,28 L132.42,26 L130.81,26 L130.81,28 L129.23,28 L129.23,21 L132.27,21 C134.1,21 135.14,21.88 135.14,23.43 C135.14,24.51 134.68,25.29 133.83,25.69 L135.32,28 L133.53,28 Z M130.81,24.68 L132.27,24.68 C133.14,24.68 133.64,24.28 133.64,23.48 C133.64,22.7 133.14,22.31 132.27,22.31 L130.81,22.31 L130.81,24.68 Z" id="VR" fill="#B4B4B4" fill-rule="nonzero"></path>
                        </g>
                    </g>
                </g>
            </g>
        </g>
    </g>
</svg>